HIERARCHY
ROOT hip
{
	OFFSET 0.000000 0.000000 0.000000
	CHANNELS 6 Xposition Yposition Zposition Xrotation Zrotation Yrotation 
	JOINT abdomen
	{
		OFFSET 0.000000 3.422050 0.000000
		CHANNELS 3 Xrotation Zrotation Yrotation 
		JOINT chest
		{
			OFFSET 0.000000 8.486693 -0.684411
			CHANNELS 3 Xrotation Zrotation Yrotation 
			JOINT neck
			{
				OFFSET 0.000000 10.266162 -0.273764
				CHANNELS 3 Xrotation Zrotation Yrotation 
				JOINT head
				{
					OFFSET 0.000000 3.148285 0.000000
					CHANNELS 3 Xrotation Zrotation Yrotation 
					End Site
					{
						OFFSET 0.000000 3.148289 0.000000
					}
				}
			}
			JOINT lCollar
			{
				OFFSET 3.422053 6.707223 -0.821293
				CHANNELS 3 Yrotation Zrotation Xrotation 
				JOINT lShldr
				{
					OFFSET 3.285171 0.000000 0.000000
					CHANNELS 3 Zrotation Yrotation Xrotation 
					JOINT lForeArm
					{
						OFFSET 10.129278 0.000000 0.000000
						CHANNELS 3 Yrotation Zrotation Xrotation 
						JOINT lHand
						{
							OFFSET 8.486692 0.000000 0.000000
							CHANNELS 3 Zrotation Yrotation Xrotation 
							End Site
							{
								OFFSET 4.106464 0.000000 0.000000
							}
						}
					}
				}
			}
			JOINT rCollar
			{
				OFFSET -3.558935 6.707223 -0.821293
				CHANNELS 3 Yrotation Zrotation Xrotation 
				JOINT rShldr
				{
					OFFSET -3.148289 0.000000 0.000000
					CHANNELS 3 Zrotation Yrotation Xrotation 
					JOINT rForeArm
					{
						OFFSET -10.266159 0.000000 0.000000
						CHANNELS 3 Yrotation Zrotation Xrotation 
						JOINT rHand
						{
							OFFSET -8.349810 0.000000 0.000000
							CHANNELS 3 Zrotation Yrotation Xrotation 
							End Site
							{
								OFFSET -4.106464 0.000000 0.000000
							}
						}
					}
				}
			}
		}
	}
	JOINT lThigh
	{
		OFFSET 5.338403 -1.642589 1.368821
		CHANNELS 3 Xrotation Zrotation Yrotation 
		JOINT lShin
		{
			OFFSET -2.053232 -20.121670 0.000000
			CHANNELS 3 Xrotation Zrotation Yrotation 
			JOINT lFoot
			{
				OFFSET 0.000000 -19.300380 -1.231939
				CHANNELS 3 Xrotation Yrotation Zrotation 
				End Site
				{
					OFFSET 0.000000 -2.463878 4.653993
				}
			}
		}
	}
	JOINT rThigh
	{
		OFFSET -5.338403 -1.642589 1.368821
		CHANNELS 3 Xrotation Zrotation Yrotation 
		JOINT rShin
		{
			OFFSET 2.053232 -20.121670 0.000000
			CHANNELS 3 Xrotation Zrotation Yrotation 
			JOINT rFoot
			{
				OFFSET 0.000000 -19.300380 -1.231939
				CHANNELS 3 Xrotation Yrotation Zrotation 
				End Site
				{
					OFFSET 0.000000 -2.463878 4.653993
				}
			}
		}
	}
}
MOTION
Frames: 16
Frame Time: 0.033264
0.000000 43.528500 0.000000 0.000000 0.000000 0.000000 0.000000 0.000000 0.000000 0.000000 0.000000 0.000000 0.000000 0.000000 0.000000 0.000000 0.000000 0.000000 0.000000 0.000000 0.000000 0.000000 0.000000 0.000000 0.000000 0.000000 0.000000 0.000000 0.000000 0.000000 0.000000 0.000000 0.000000 0.000000 0.000000 0.000000 0.000000 0.000000 0.000000 0.000000 0.000000 0.000000 0.000000 0.000000 0.000000 0.000000 0.000000 0.000000 0.000000 0.000000 0.000000 0.000000 0.000000 0.000000 0.000000 0.000000 0.000000 0.000000 0.000000 0.000000 
0.820026 20.967424 13.435724 -23.001392 -0.005141 -179.998962 -9.152941 -0.000500 -0.247298 31.100782 -0.018530 -0.005156 -0.211574 0.000000 0.000000 -0.487844 -0.064692 0.000279 -1.928819 -32.617844 -15.204680 -21.381071 -38.101830 -4.084808 -42.365799 -57.652882 10.540510 59.952347 -30.748938 -6.165609 -0.703643 30.089838 -17.302603 21.127100 40.337765 -4.837796 61.299240 60.422401 -6.030099 -38.343899 -9.830529 -42.261753 -45.058834 13.284196 9.433793 113.164360 3.627818 0.382612 50.098854 8.374945 -15.515094 -43.669971 -11.922225 -13.959391 112.696579 -3.357722 -0.237559 49.058804 -13.040389 15.241076 
0.820026 20.975101 13.352621 -21.890129 -0.004867 -179.999069 -8.542549 -0.000539 -0.247256 29.884827 -0.018789 -0.005014 -0.420714 0.000000 0.000000 -0.966119 -0.123785 -0.020106 -2.716954 -31.908449 -13.465087 -21.381071 -38.101830 -4.084808 -40.807083 -56.915638 11.833470 61.106049 -29.725246 -7.932683 -0.112742 29.482679 -15.565694 21.127102 40.337765 -4.837795 58.809185 59.688629 -3.922481 -38.219181 -9.657982 -43.934387 -43.600006 13.211414 9.430242 112.845993 3.614282 0.370257 50.098854 8.374945 -15.515094 -42.233521 -11.793678 -13.912363 112.378944 -3.345323 -0.228021 49.058804 -13.040389 15.241076 
0.820026 20.982777 13.269518 -20.782236 -0.004592 -179.999161 -7.931878 -0.000578 -0.247213 28.666670 -0.019046 -0.004867 -0.629908 0.000000 0.000000 -1.445045 -0.183130 -0.040025 -3.529833 -31.214777 -11.714881 -21.381071 -38.101830 -4.084808 -39.306793 -56.158855 13.066580 62.215668 -28.667656 -9.664490 0.499158 28.887844 -13.821478 21.127100 40.337769 -4.837797 56.424019 58.909557 -1.921707 -38.099289 -9.481312 -45.611542 -42.137783 13.138559 9.424777 112.527596 3.600676 0.357976 50.098858 8.374946 -15.515094 -40.793884 -11.665996 -13.861948 112.061279 -3.332871 -0.218550 49.058804 -13.040389 15.241076 
0.820026 20.990452 13.186415 -19.672880 -0.004315 -179.999252 -7.320964 -0.000619 -0.247172 27.446558 -0.019300 -0.004713 -0.839156 0.000000 0.000000 -1.924609 -0.242722 -0.059474 -4.366425 -30.538425 -9.954897 -21.381071 -38.101830 -4.084808 -37.862751 -55.383797 14.241965 63.281029 -27.578062 -11.361029 1.131291 28.306522 -12.070680 21.127102 40.337769 -4.837795 54.142536 58.088505 -0.026619 -37.984409 -9.300708 -47.292511 -40.672588 13.065692 9.417385 112.209160 3.586998 0.345770 50.098854 8.374945 -15.515094 -39.351501 -11.539306 -13.808172 111.743599 -3.320364 -0.209148 49.058807 -13.040389 15.241077 
0.820027 20.998129 13.103312 -18.562273 -0.004036 -179.999344 -6.709841 -0.000659 -0.247130 26.224785 -0.019551 -0.004554 -1.048456 0.000000 0.000000 -2.404796 -0.302553 -0.078448 -5.225608 -29.880976 -8.186075 -21.381071 -38.101830 -4.084808 -36.472786 -54.591721 15.361832 64.302185 -26.458410 -13.022489 1.782822 27.739906 -10.314116 21.127096 40.337757 -4.837797 51.962574 57.228687 1.764939 -37.874718 -9.116374 -48.976604 -39.204895 12.992887 9.408066 111.890732 3.573254 0.333640 50.098854 8.374944 -15.515093 -37.906799 -11.413733 -13.751063 111.425880 -3.307805 -0.199815 49.058804 -13.040389 15.241076 
0.820027 21.005806 13.020208 -17.450613 -0.003756 -179.999420 -6.098546 -0.000700 -0.247089 25.001614 -0.019799 -0.004390 -1.257806 0.000000 0.000000 -2.885590 -0.362620 -0.096944 -6.106166 -29.243940 -6.409433 -21.381071 -38.101830 -4.084808 -35.134621 -53.783779 16.428413 65.279312 -25.310650 -14.649220 2.452848 27.189131 -8.552629 21.127100 40.337765 -4.837796 49.881210 56.333282 3.455903 -37.770409 -8.928535 -50.663120 -37.735184 12.920218 9.396816 111.572281 3.559443 0.321585 50.098854 8.374946 -15.515093 -36.460239 -11.289412 -13.690673 111.108147 -3.295194 -0.190551 49.058804 -13.040389 15.241076 
0.820027 21.013481 12.937105 -16.338110 -0.003473 -179.999496 -5.487110 -0.000742 -0.247049 23.777330 -0.020044 -0.004220 -1.467206 0.000000 0.000000 -3.366978 -0.422917 -0.114958 -7.006795 -28.628778 -4.626083 -21.381071 -38.101830 -4.084808 -33.846050 -52.961140 17.443949 66.212753 -24.136747 -16.241732 3.140404 26.655281 -6.787134 21.127100 40.337765 -4.837796 47.894913 55.405285 5.049797 -37.671612 -8.737406 -52.351345 -36.263939 12.847759 9.383646 111.253807 3.545561 0.309607 50.098854 8.374945 -15.515093 -35.012268 -11.166465 -13.627041 110.790405 -3.282531 -0.181357 49.058804 -13.040389 15.241076 
0.820027 21.021156 12.854002 -15.224977 -0.003188 -179.999573 -4.875570 -0.000784 -0.247009 22.552197 -0.020285 -0.004045 -1.676653 0.000000 0.000000 -3.848942 -0.483437 -0.132485 -7.926108 -28.036880 -2.837219 -21.381071 -38.101830 -4.084808 -32.604816 -52.124832 18.410639 67.102997 -22.938683 -17.800653 3.844464 26.139421 -5.018599 21.127100 40.337765 -4.837796 45.999752 54.447536 6.550532 -37.578503 -8.543240 -54.040592 -34.791618 12.775581 9.368559 110.935310 3.531614 0.297706 50.098854 8.374945 -15.515094 -33.563339 -11.045015 -13.560225 110.472641 -3.269816 -0.172232 49.058804 -13.040389 15.241076 
0.820027 21.028833 12.770899 -14.111424 -0.002903 -179.999634 -4.263959 -0.000826 -0.246969 21.326508 -0.020522 -0.003864 -1.886147 0.000000 0.000000 -4.331470 -0.544175 -0.149524 -8.862641 -27.469517 -1.044108 -21.381075 -38.101830 -4.084807 -31.408745 -51.275867 19.330658 67.950600 -21.718424 -19.326721 4.563945 25.642519 -3.248030 21.127100 40.337765 -4.837796 44.191555 53.462734 7.962275 -37.491180 -8.346262 -55.730106 -33.318714 12.703756 9.351568 110.616837 3.517600 0.285883 50.098858 8.374946 -15.515094 -32.113907 -10.925183 -13.490282 110.154884 -3.257050 -0.163179 49.058804 -13.040389 15.241076 
0.820027 21.036510 12.687796 -12.997658 -0.002616 -179.999710 -3.652315 -0.000869 -0.246930 20.100540 -0.020756 -0.003679 -2.095685 0.000000 0.000000 -4.814544 -0.605125 -0.166069 -9.814859 -26.927900 0.751909 -21.381073 -38.101833 -4.084809 -30.255713 -50.415237 20.206154 68.756210 -20.477930 -20.820765 5.297717 25.165497 -1.476485 21.127100 40.337769 -4.837797 42.466007 52.453449 9.289348 -37.409771 -8.146742 -57.419216 -31.845724 12.632360 9.332688 110.298347 3.503520 0.274138 50.098862 8.374947 -15.515096 -30.664425 -10.807088 -13.417278 109.837143 -3.244235 -0.154197 49.058807 -13.040389 15.241077 
0.820027 21.044186 12.604692 -11.883889 -0.002327 -179.999756 -3.040670 -0.000912 -0.246891 18.874571 -0.020985 -0.003488 -2.305267 0.000000 0.000000 -5.298148 -0.666281 -0.182118 -10.781167 -26.413103 2.549429 -21.381067 -38.101822 -4.084808 -29.143650 -49.543869 21.039175 69.520584 -19.219135 -22.283691 6.044599 24.709192 0.294943 21.127098 40.337761 -4.837795 40.818741 51.422062 10.536090 -37.334373 -7.944932 -59.107193 -30.373108 12.561459 9.311942 109.979881 3.489377 0.262472 50.098854 8.374944 -15.515093 -29.215357 -10.690844 -13.341288 109.519371 -3.231370 -0.145286 49.058800 -13.040388 15.241076 
0.820027 21.051861 12.521588 -10.770329 -0.002038 -179.999817 -2.429060 -0.000956 -0.246853 17.648880 -0.021211 -0.003293 -2.514891 0.000000 0.000000 -5.782269 -0.727637 -0.197667 -11.759911 -25.926088 4.346994 -21.381073 -38.101830 -4.084807 -28.070555 -48.662598 21.831684 70.244507 -17.943958 -23.716465 6.803371 24.274364 2.065121 21.127100 40.337757 -4.837796 39.245453 50.370846 11.706822 -37.265076 -7.741101 -60.793350 -28.901369 12.491129 9.289350 109.661415 3.475169 0.250885 50.098850 8.374946 -15.515093 -27.767153 -10.576561 -13.262385 109.201637 -3.218455 -0.136447 49.058800 -13.040388 15.241076 
0.820027 21.059538 12.438485 -9.657188 -0.001748 -179.999863 -1.817519 -0.001000 -0.246815 16.423750 -0.021432 -0.003093 -2.724557 0.000000 0.000000 -6.266889 -0.789187 -0.212712 -12.749401 -25.467695 6.143107 -21.381071 -38.101830 -4.084808 -27.034485 -47.772274 22.585642 70.928841 -16.654285 -25.120100 7.572780 23.861691 3.832898 21.127100 40.337765 -4.837796 37.741905 49.301888 12.805762 -37.201946 -7.535518 -62.476978 -27.430975 12.421430 9.264935 109.342987 3.460897 0.239378 50.098854 8.374945 -15.515094 -26.320274 -10.464347 -13.180655 108.883911 -3.205493 -0.127680 49.058804 -13.040389 15.241076 
0.820027 21.067215 12.355382 -8.544676 -0.001457 -179.999893 -1.206084 -0.001044 -0.246778 15.199463 -0.021648 -0.002888 -2.934260 0.000000 0.000000 -6.751995 -0.850925 -0.227251 -13.747911 -25.038628 7.936234 -21.381071 -38.101830 -4.084808 -26.033615 -46.873688 23.302856 71.574409 -15.351954 -26.495636 8.351547 23.471758 5.597093 21.127100 40.337765 -4.837796 35.601040 48.471813 14.559658 -37.145035 -7.328460 -64.157410 -25.962410 12.352438 9.238735 109.024567 3.446562 0.227951 50.098854 8.374945 -15.515094 -24.875181 -10.354307 -13.096185 108.566223 -3.192484 -0.118985 49.058804 -13.040389 15.241076 
0.820027 21.074890 12.272279 -7.433000 -0.001166 -179.999924 -0.594787 -0.001089 -0.246741 13.976295 -0.021860 -0.002680 -3.144004 0.000000 0.000000 -7.237567 -0.912845 -0.241281 -14.753694 -24.639433 9.724821 -21.381071 -38.101830 -4.084808 -25.066185 -45.967594 23.985090 72.182137 -14.038777 -27.844147 9.138376 23.105049 7.356515 21.127102 40.337765 -4.837797 33.532219 47.599220 16.238995 -37.094376 -7.120200 -65.833931 -24.496140 12.284210 9.210776 108.706154 3.432164 0.216605 50.098858 8.374946 -15.515096 -23.432310 -10.246534 -13.009063 108.248520 -3.179425 -0.110364 49.058807 -13.040389 15.241077 
